<svg width="726" height="825" xmlns="http://www.w3.org/2000/svg" xmlns:xlink="http://www.w3.org/1999/xlink" xml:space="preserve" overflow="hidden"><defs><clipPath id="clip0"><rect x="1837" y="825" width="726" height="825"/></clipPath><linearGradient x1="1901.6" y1="1692.38" x2="2498.4" y2="782.622" gradientUnits="userSpaceOnUse" spreadMethod="reflect" id="fill1"><stop offset="0" stop-color="#FF8A26"/><stop offset="0.5" stop-color="#FD5D5F"/><stop offset="1" stop-color="#FB3199"/></linearGradient></defs><g clip-path="url(#clip0)" transform="translate(-1837 -825)"><path d="M2200.17 825C2209.12 825 2217.72 827.404 2224.94 831.869L2550.39 1018.71C2562.43 1025.58 2566.55 1041.04 2559.67 1053.06L2408.3 1314.09C2403.14 1323.02 2406.24 1334.36 2415.19 1339.51L2546.26 1415.41C2553.83 1419.54 2558.99 1427.44 2558.99 1436.71 2558.99 1445.98 2553.83 1453.88 2546.26 1458.35L2546.6 1458.35 2224.94 1643.13C2217.72 1647.6 2209.12 1650 2200.17 1650 2190.88 1650 2182.28 1647.6 2175.06 1643.13L1849.62 1455.94C1837.57 1449.07 1833.45 1433.96 1840.33 1421.94L1991.7 1160.91C1996.86 1151.98 1993.76 1140.64 1984.82 1135.49L1853.74 1059.59C1846.17 1055.46 1841.01 1047.56 1841.01 1038.29 1841.01 1029.02 1846.17 1021.12 1853.74 1016.65L2175.06 831.869C2182.28 827.404 2190.88 825 2200.17 825ZM2237.33 1191.48C2240.77 1191.48 2243.86 1190.45 2246.96 1188.73L2480.89 1054.43C2486.4 1051 2490.18 1045.16 2490.18 1038.29 2490.18 1031.42 2486.4 1025.24 2480.89 1022.15L2246.96 887.51C2241.11 884.419 2234.23 884.076 2228.04 887.51 2222.19 890.945 2218.75 897.127 2218.75 903.653L2218.75 1172.59C2218.75 1179.11 2222.19 1185.29 2228.04 1189.07 2231.13 1190.79 2234.23 1191.48 2237.33 1191.48ZM2013.02 1105.61C2019.56 1105.61 2025.75 1102.18 2029.19 1095.99L2125.52 930.1C2126.55 928.383 2127.24 926.322 2127.24 923.918 2127.24 917.048 2121.39 911.553 2114.51 911.553 2112.45 911.553 2110.38 912.24 2108.66 913.27L1919.11 1022.15C1913.6 1025.24 1909.82 1031.42 1909.82 1038.29 1909.82 1045.16 1913.6 1051 1919.11 1054.43L2003.74 1102.86C2006.49 1104.58 2009.93 1105.61 2013.02 1105.61ZM2162.67 1191.48C2165.77 1191.48 2168.87 1190.79 2171.96 1189.07 2177.81 1185.64 2181.25 1179.11 2181.25 1172.59L2181.25 955.173 2181.25 954.829C2181.25 947.96 2175.75 942.465 2168.87 942.465 2164.05 942.465 2160.27 945.212 2158.2 948.647L2061.88 1114.88C2056.72 1123.81 2059.81 1135.15 2068.76 1140.3L2153.04 1188.73C2156.14 1190.45 2159.23 1191.48 2162.67 1191.48ZM2359.45 1304.82C2365.99 1304.82 2372.18 1301.38 2375.62 1295.55L2471.95 1129.31C2472.98 1127.59 2473.67 1125.53 2473.67 1123.13 2473.67 1116.26 2468.16 1110.76 2460.94 1110.76 2458.88 1110.76 2456.81 1111.45 2455.09 1112.48L2265.88 1221.36C2260.03 1224.45 2256.25 1230.63 2256.25 1237.5 2256.25 1244.37 2260.03 1250.21 2265.88 1253.64L2350.17 1302.41C2353.26 1304.13 2356.36 1304.82 2359.45 1304.82ZM1939.06 1364.24C1941.35 1364.24 1943.42 1363.66 1945.25 1362.52L2134.46 1253.64C2139.97 1250.55 2143.75 1244.37 2143.75 1237.5 2143.75 1230.63 2139.97 1224.79 2134.46 1221.36L2049.84 1172.59C2040.89 1167.43 2029.54 1170.52 2024.38 1179.45L1928.05 1345.69C1927.02 1347.41 1926.33 1349.47 1926.33 1351.87 1926.33 1358.74 1932.18 1364.24 1939.06 1364.24ZM2162.67 1589.89C2165.77 1589.89 2168.87 1589.21 2171.96 1587.49 2177.81 1584.06 2181.25 1577.87 2181.25 1571.35L2181.25 1302.07C2181.25 1295.89 2177.81 1289.36 2171.96 1285.93 2165.77 1282.49 2158.89 1282.84 2153.04 1285.93L1919.11 1420.57C1913.6 1424 1909.82 1429.84 1909.82 1436.71 1909.82 1443.58 1913.6 1449.76 1919.11 1452.85L2153.04 1587.49C2156.14 1589.21 2159.23 1589.89 2162.67 1589.89ZM2231.13 1532.54C2235.95 1532.54 2239.73 1529.79 2242.14 1526.35L2338.12 1360.12C2343.28 1351.19 2340.19 1339.85 2331.24 1334.7L2246.96 1286.27C2241.11 1282.84 2234.23 1282.49 2228.04 1285.93 2222.19 1289.36 2218.75 1295.89 2218.75 1302.07L2218.75 1519.83 2218.75 1520.17C2218.75 1526.7 2224.6 1532.54 2231.13 1532.54ZM2285.49 1563.45C2287.55 1563.45 2289.62 1562.76 2291.68 1561.73L2480.89 1452.85C2486.4 1449.76 2490.18 1443.58 2490.18 1436.71 2490.18 1429.84 2486.4 1424 2480.89 1420.57L2396.26 1372.14C2387.32 1366.99 2375.97 1370.08 2370.81 1378.66L2274.48 1544.9C2273.45 1546.62 2272.76 1548.68 2272.76 1551.08 2272.76 1557.95 2278.61 1563.45 2285.49 1563.45Z" fill="url(#fill1)" fill-rule="evenodd"/></g></svg>